# xmcd CD database file
#
# Track frame offsets:
#	150
#	17555
#	41612
#	68632
#	80510
#	96177
#	112137
#	132190
#	150392
#	165872
#	173242
#
# Disc length: 2500 seconds
#
# Revision: 0
# Processed by: cddbd v1.5PL3 Copyright (c) Steve Scherf et al.
# Submitted via: CDex 1.50beta10
#
DISCID=7e09c20b
DTITLE=Robert Lowery - Earthquake Blues
DYEAR=1989
DGENRE=Blues
TTITLE0=Honey Babe
TTITLE1=Come On In My Kitchen
TTITLE2=Ramblin On My Mind
TTITLE3=Earthquake Blues
TTITLE4=Midnight Run
TTITLE5=One Kind Of Favor
TTITLE6=Big Road
TTITLE7=Crossroads
TTITLE8=Fan It
TTITLE9=Interlude Blues
TTITLE10=They Call Me The Blues Man
EXTD=YEAR: 1989
EXTT0=
EXTT1=
EXTT2=
EXTT3=
EXTT4=
EXTT5=
EXTT6=
EXTT7=
EXTT8=
EXTT9=
EXTT10=
PLAYORDER=
